<?xml version="1.0" encoding="utf-8"?>
<!-- Generator: Adobe Illustrator 19.0.1, SVG Export Plug-In . SVG Version: 6.00 Build 0)  -->
<svg version="1.1" id="Layer_1" xmlns="http://www.w3.org/2000/svg" xmlns:xlink="http://www.w3.org/1999/xlink" x="0px" y="0px"
	 viewBox="-49 -100 200 300" style="enable-background:new -49 -100 200 300;" xml:space="preserve">
<style type="text/css">
	.st0{fill:#E0C3A4;stroke:#A5A5A5;stroke-miterlimit:10;}
	.st1{fill:#E2E2E0;stroke:#A5A5A5;stroke-miterlimit:10;}
	.st2{fill:#E2E7E3;stroke:#A5A5A5;stroke-miterlimit:10;}
	.st3{fill:#8FC5FF;stroke:#A5A5A5;stroke-miterlimit:10;}
	.st4{fill:#F49AA5;stroke:#A5A5A5;stroke-miterlimit:10;}
	.st5{fill:#D3D3D3;stroke:#A5A5A5;stroke-miterlimit:10;}
	.st6{fill:#AFAFAF;stroke:#A5A5A5;stroke-miterlimit:10;}
	.st7{fill:none;stroke:#9BE8B8;stroke-miterlimit:10;}
	.st8{fill:#9BCEAD;stroke:#A5A5A5;stroke-miterlimit:10;}
	.st9{fill:#B2B7CC;stroke:#A5A5A5;stroke-miterlimit:10;}
	.st10{fill:#EEDA69;stroke:#A5A5A5;stroke-miterlimit:10;}
</style>
<rect id="XMLID_1_" x="-49" y="140" class="st0" width="200" height="60"/>
<rect id="XMLID_2_" x="-49" y="-100" class="st1" width="200" height="239.8"/>
<path id="XMLID_23_" class="st2" d="M4.8,134.7c-0.1,0-0.2,0-0.3,0c-3.6,0-6.5-2.9-6.5-6.5s2.9-6.5,6.5-6.5v2.5c-2.2,0-4,1.8-4,4
	s1.8,4,4,4v0.4C4.4,133.4,4.5,134.1,4.8,134.7z"/>
<g id="XMLID_18_">
	<rect id="XMLID_14_" x="84.9" y="137.8" class="st2" width="10" height="2"/>
	<rect id="XMLID_19_" x="84.9" y="110.8" class="st2" width="10" height="2"/>
	<path id="XMLID_34_" class="st2" d="M95.9,113.8v11.5h-6l3-12.5h2C95.5,112.8,95.9,113.2,95.9,113.8z"/>
	<path id="XMLID_30_" class="st3" d="M92.9,112.8l-3,12.5h-6v-11.5c0-0.5,0.5-1,1-1H92.9z"/>
	<path id="XMLID_29_" class="st3" d="M95.9,125.2v11.5c0,0.5-0.5,1-1,1h-8l3-12.5H95.9z"/>
	<path id="XMLID_35_" class="st2" d="M89.9,125.2l-3,12.5h-2c-0.5,0-1-0.5-1-1v-11.5H89.9z"/>
	<rect id="XMLID_12_" x="83.9" y="123.8" class="st4" width="12" height="2.9"/>
</g>
<path id="XMLID_25_" class="st2" d="M29.4,119.8v12.9c0,3.9-3.2,7.1-7.1,7.1H11.6c-3.2,0-5.9-2.1-6.8-5c-0.2-0.7-0.3-1.4-0.3-2.1
	v-12.9H29.4z"/>
<path id="XMLID_3_" class="st2" d="M83.3,139.8H18.7c-1.5,0-2.7-1.2-2.7-2.7v-2.3h70v2.3C86,138.5,84.8,139.8,83.3,139.8z"/>
<path id="XMLID_4_" class="st5" d="M57,136.2H45c-0.8,0-1.5-0.7-1.5-1.5l0,0h15l0,0C58.5,135.6,57.8,136.2,57,136.2z"/>
<path id="XMLID_5_" class="st2" d="M78.4,99.8h-55c-1.4,0-2.5,1.1-2.5,2.5v32.5h60v-32.5C80.9,100.9,79.8,99.8,78.4,99.8z"/>
<rect id="XMLID_6_" x="23.5" y="102.2" class="st6" width="55" height="30"/>
<line id="XMLID_8_" class="st7" x1="25.5" y1="105.1" x2="55.5" y2="105.1"/>
<line id="XMLID_7_" class="st7" x1="25.5" y1="108.1" x2="55.5" y2="108.1"/>
<line id="XMLID_9_" class="st7" x1="25.5" y1="111.1" x2="45.5" y2="111.1"/>
<line id="XMLID_10_" class="st7" x1="25.5" y1="114.1" x2="40.5" y2="114.1"/>
<line id="XMLID_11_" class="st7" x1="25.5" y1="117.1" x2="40.5" y2="117.1"/>
<line id="XMLID_13_" class="st7" x1="25.5" y1="120.1" x2="30.5" y2="120.1"/>
<line id="XMLID_15_" class="st7" x1="25.5" y1="123.1" x2="45.5" y2="123.1"/>
<line id="XMLID_16_" class="st7" x1="25.5" y1="126.1" x2="50.5" y2="126.1"/>
<line id="XMLID_17_" class="st7" x1="25.5" y1="129.1" x2="45.5" y2="129.1"/>
<rect id="XMLID_20_" x="11" y="-36.5" class="st2" width="80" height="115"/>
<rect id="XMLID_21_" x="5.5" y="78.5" class="st2" width="90" height="5"/>
<rect id="XMLID_22_" x="15.9" y="38.5" class="st8" width="70" height="35"/>
<rect id="XMLID_38_" x="16" y="-31.5" class="st9" width="70" height="45"/>
<rect id="XMLID_39_" x="16" y="23.5" class="st9" width="70" height="15"/>
<rect id="XMLID_24_" x="41.6" y="-27.9" transform="matrix(-0.7071 0.7071 -0.7071 -0.7071 53.6998 -75.9929)" class="st10" width="2" height="2"/>
<rect id="XMLID_26_" x="43.6" y="-15.9" transform="matrix(-0.7071 0.7071 -0.7071 -0.7071 65.5991 -56.9219)" class="st10" width="2" height="2"/>
<rect id="XMLID_27_" x="56.6" y="-14.9" transform="matrix(-0.7071 0.7071 -0.7071 -0.7071 88.4985 -64.407)" class="st10" width="2" height="2"/>
<rect id="XMLID_28_" x="33.6" y="-3.9" transform="matrix(-0.7071 0.7071 -0.7071 -0.7071 57.0131 -29.3657)" class="st10" width="2" height="2"/>
<rect id="XMLID_31_" x="60.6" y="-4.9" transform="matrix(-0.7071 0.7071 -0.7071 -0.7071 102.3978 -50.1643)" class="st10" width="2" height="2"/>
</svg>
