<?xml version="1.0" encoding="utf-8"?>
<!-- Generator: Adobe Illustrator 19.0.1, SVG Export Plug-In . SVG Version: 6.00 Build 0)  -->
<svg version="1.1" id="Layer_1" xmlns="http://www.w3.org/2000/svg" xmlns:xlink="http://www.w3.org/1999/xlink" x="0px" y="0px"
	 viewBox="0 0 200 300" style="enable-background:new 0 0 200 300;" xml:space="preserve">
<style type="text/css">
	.st0{fill:#D0EBF4;stroke:#A5A5A5;stroke-miterlimit:10;}
	.st1{fill:#B8F2B8;stroke:#A5A5A5;stroke-miterlimit:10;}
	.st2{fill:#E6E7E8;stroke:#A5A5A5;stroke-miterlimit:10;}
	.st3{fill:#E2B9B3;stroke:#A5A5A5;stroke-miterlimit:10;}
	.st4{fill:#EFF2F4;stroke:#A5A5A5;stroke-miterlimit:10;}
	.st5{fill:#D6B9B6;stroke:#A5A5A5;stroke-miterlimit:10;}
	.st6{fill:none;stroke:#A5A5A5;stroke-miterlimit:10;}
	.st7{fill:#B7B3B0;stroke:#A5A5A5;stroke-miterlimit:10;}
	.st8{fill:none;stroke:#A5A5A5;stroke-miterlimit:12;stroke-dasharray:0.5,1.85;}
	.st9{fill:#D6B9B6;stroke:#E6E7E8;stroke-miterlimit:10;}
	.st10{fill:#D6B9B6;stroke:#E6E7E8;stroke-linejoin:bevel;stroke-miterlimit:10;}
	.st11{fill:#E6E7E8;stroke:#A5A5A5;stroke-linejoin:round;stroke-miterlimit:10;}
	.st12{fill:#B8EDF4;stroke:#A5A5A5;stroke-miterlimit:10;}
	.st13{fill:#9BE8B8;stroke:#A5A5A5;stroke-miterlimit:10;}
</style>
<rect x="0.1" y="0" class="st0" width="200" height="250"/>
<rect y="250" class="st1" width="200" height="50"/>
<rect x="85" y="200" class="st2" width="30" height="50"/>
<rect x="85" y="163" class="st3" width="30" height="35"/>
<rect x="85" y="126" class="st3" width="30" height="35"/>
<rect x="85" y="94.7" class="st2" width="30" height="29.3"/>
<polygon class="st2" points="103.1,211 97.1,211 96.1,200 104.1,200 "/>
<path class="st0" d="M100,210L100,210c-2.8,0-5,2.2-5,5v35h10v-35C105,212.2,102.8,210,100,210z"/>
<rect x="84" y="240" class="st2" width="12" height="10"/>
<rect x="104" y="240" class="st2" width="12" height="10"/>
<path class="st4" d="M86.4,72.2C86.4,72.3,86.4,72.3,86.4,72.2l-60.9,0c0-2.4,2-4.3,4.3-4.3c0.2,0,0.4,0,0.7,0v0
	c0-4.5,3.7-8.2,8.2-8.2c0.6,0,1.1,0.1,1.6,0.2c0.9-6.8,6.8-12.1,13.8-12.1c6.3,0,11.6,4.2,13.3,9.9c1.3-0.6,2.7-0.9,4.2-0.9
	c5.5,0,10,4.5,10,10c0,0.6,0,1.2-0.1,1.7c0.3-0.1,0.6-0.1,1-0.1C84.7,68.3,86.4,70.1,86.4,72.2z"/>
<rect x="84" y="216" class="st2" width="12" height="3"/>
<rect x="104" y="216" class="st2" width="12" height="3"/>
<rect x="84" y="198" class="st2" width="32" height="2"/>
<rect x="84" y="161" class="st2" width="32" height="2"/>
<rect x="84" y="124" class="st2" width="32" height="2"/>
<rect x="95" y="163" class="st5" width="10" height="35"/>
<rect x="95" y="126" class="st5" width="10" height="35"/>
<rect x="95" y="196" class="st2" width="10" height="2"/>
<rect x="95" y="163" class="st2" width="10" height="2"/>
<rect x="95" y="159" class="st2" width="10" height="2"/>
<rect x="95" y="126" class="st2" width="10" height="2"/>
<circle class="st2" cx="100" cy="107.2" r="6.5"/>
<rect x="85" y="97.7" class="st2" width="5" height="19"/>
<rect x="110" y="97.7" class="st2" width="5" height="19"/>
<polyline class="st6" points="97.2,102.6 100,107.2 97.8,109.4 "/>
<rect x="112" y="73.8" class="st2" width="3" height="20"/>
<rect x="85" y="73.8" class="st2" width="3" height="20"/>
<path class="st7" d="M103.1,88.8h-6v-6c0-1.7,1.3-3,3-3h0c1.7,0,3,1.3,3,3V88.8z"/>
<circle class="st8" cx="100" cy="107.2" r="4.5"/>
<rect x="85" y="76.8" class="st2" width="30" height="4"/>
<polygon class="st2" points="115,93.8 115,97.8 85,97.8 85,93.8 90,90.8 90,73.8 94,73.8 94,93.8 106,93.8 106,73.8 110,73.8 
	110,90.8 "/>
<rect x="95" y="120" class="st2" width="10" height="4"/>
<polygon class="st2" points="118,120 115,120 115,124 121,124 121,122 "/>
<path class="st2" d="M115,63.8v10h-9c0-3.3-2.7-6-6-6s-6,2.7-6,6h-9v-10H115z"/>
<polygon class="st2" points="85,120 82,120 79,122 79,124 85,124 "/>
<polygon class="st9" points="92,44.9 92,60.8 84,60.8 "/>
<polygon class="st10" points="100,29 100,60.8 92,60.8 92,44.9 "/>
<polygon class="st10" points="108,44.9 108,60.8 100,60.8 100,29 "/>
<polygon class="st9" points="116,60.8 108,60.8 108,44.9 "/>
<polygon class="st11" points="84,60.8 116,60.8 115,63.8 85,63.8 "/>
<polygon class="st6" points="100,29 116,60.8 84,60.8 "/>
<line class="st12" x1="100" y1="29" x2="100" y2="24.2"/>
<line class="st6" x1="36.6" y1="76.3" x2="35.9" y2="76.3"/>
<line class="st6" x1="36.6" y1="76.3" x2="35.9" y2="76.3"/>
<line class="st6" x1="36.6" y1="76.3" x2="35.9" y2="76.3"/>
<rect x="123.5" y="244" class="st2" width="21" height="6"/>
<rect x="151.5" y="244" class="st2" width="21" height="6"/>
<rect x="56" y="244" class="st2" width="21" height="6"/>
<path class="st4" d="M164,82L164,82l-42.5,0.1c0-2.8,2.2-5.1,5-5.1v0c0-6.5,5.3-11.8,11.8-11.8c4.4,0,8.2,2.4,10.2,5.9
	c0.8-0.2,1.6-0.3,2.4-0.3c4.5,0,8.2,3.5,8.6,7.9c0.3-0.1,0.6-0.1,1-0.1C162.4,78.5,164,80.1,164,82z"/>
<g id="XMLID_29_">
	<path id="XMLID_44_" class="st13" d="M144.1,222.2c0-3.7-2.8-6.8-6.4-7.3c0-0.4,0.1-0.8,0.1-1.1c0-5.3-4.2-9.5-9.5-9.5
		c-4.9,0-9,3.7-9.5,8.6c-2.4,0.5-4.3,2.6-4.3,5.2c0,0.6,0.1,1.1,0.3,1.7c-2.6,1.1-4.5,3.7-4.5,6.8c0,4.1,3.3,7.4,7.4,7.4
		c0.4,0,0.8,0,1.1-0.1c0.4,2.5,2.6,4.3,5.2,4.3c2.2,0,4.1-1.4,4.9-3.3c0.1,0,0.2,0,0.3,0c0.6,0,1.1-0.2,1.6-0.5c1,1,2.3,1.6,3.8,1.6
		c2.6,0,4.8-1.9,5.2-4.4c0.4,0.1,0.7,0.1,1.1,0.1c2.9,0,5.3-2.4,5.3-5.3C146.2,224.7,145.4,223.2,144.1,222.2z"/>
	<line id="XMLID_30_" class="st6" x1="129.5" y1="250" x2="129.5" y2="220"/>
	<line id="XMLID_31_" class="st6" x1="129.7" y1="228.9" x2="135" y2="223.6"/>
	<line id="XMLID_32_" class="st6" x1="129.7" y1="231.6" x2="124.2" y2="226.1"/>
</g>
<g id="XMLID_60_">
	<path id="XMLID_142_" class="st13" d="M76.2,229.6c0,4.4-3.6,7.9-7.9,7.9c-0.4,0-0.8,0-1.2-0.1c-0.5,2.7-2.8,4.7-5.6,4.7
		c-2.3,0-4.3-1.4-5.2-3.3c-1.2,0.7-2.5,1-3.9,1c-3.3,0-6.1-2-7.3-4.8c-0.5,0.2-1.2,0.3-1.8,0.3c-3.1,0-5.7-2.5-5.7-5.7
		c0-2,1-3.7,2.6-4.7c-0.2-0.7-0.3-1.4-0.3-2.1c0-4,3-7.4,6.9-7.9c0-0.4-0.1-0.8-0.1-1.2c0-5.7,4.6-10.2,10.2-10.2
		c5.3,0,9.6,4,10.2,9.2c3,0.6,4.9,3.4,4.5,6.4c-0.2,1.1-0.6,2.1-1.3,2.8C73.7,222.8,76.2,225.9,76.2,229.6z"/>
	<polyline id="XMLID_6_" class="st6" points="57.5,250 57.5,234.1 57.5,225 	"/>
	<line id="XMLID_9_" class="st6" x1="63.4" y1="229.6" x2="57.6" y2="235.3"/>
	<line id="XMLID_16_" class="st6" x1="57.3" y1="232.5" x2="53.4" y2="228.5"/>
</g>
<rect x="27" y="244" class="st2" width="21" height="6"/>
</svg>
