<?xml version="1.0" encoding="utf-8"?>
<!-- Generator: Adobe Illustrator 19.0.1, SVG Export Plug-In . SVG Version: 6.00 Build 0)  -->
<svg version="1.1" id="Layer_1" xmlns="http://www.w3.org/2000/svg" xmlns:xlink="http://www.w3.org/1999/xlink" x="0px" y="0px"
	 viewBox="0 0 300 100" style="enable-background:new 0 0 300 100;" xml:space="preserve">
<style type="text/css">
	.st0{fill:#D0EBF4;stroke:#A5A5A5;stroke-miterlimit:10;}
	.st1{fill:#EDEDED;stroke:#A5A5A5;stroke-miterlimit:10;}
	.st2{fill:#EFE6E1;stroke:#A5A5A5;stroke-miterlimit:10;}
	.st3{fill:#F9F9F9;stroke:#A5A5A5;stroke-miterlimit:10;}
	.st4{fill:#DFF2EF;stroke:#A5A5A5;stroke-miterlimit:10;}
	.st5{fill:#EDEDED;stroke:#A5A5A5;stroke-miterlimit:10;stroke-dasharray:1,1.15;}
	.st6{fill:#EDEDED;stroke:#D1D1D1;stroke-miterlimit:10;}
	.st7{fill:#EEDA69;stroke:#A5A5A5;stroke-miterlimit:10;}
	.st8{fill:#DCEFED;stroke:#A5A5A5;stroke-miterlimit:10;}
	.st9{fill:#E2E2E2;stroke:#A5A5A5;stroke-miterlimit:10;}
	.st10{fill:none;stroke:#A5A5A5;stroke-miterlimit:10;}
</style>
<rect class="st0" width="300" height="100"/>
<line class="st1" x1="104" y1="88" x2="104" y2="92"/>
<polygon class="st1" points="46.5,100 46.5,92 56,92 56,88 62,88 62,81 64.6,81 64.6,79 66.4,79 66.4,79 75.9,79 75.9,90 82,90 
	82,85 84.5,85 84.5,88 85.8,88 85.8,80.5 90,80.5 90,86 92.8,86 92.8,88.5 95.6,88.5 95.6,90.2 98.6,90.2 98.6,84.6 103.1,84.6 
	103.1,88 124.8,88 124.8,85 128,85 131.5,85 131.5,89 134.9,89 152.4,89 152.4,74 155.5,74 155.5,80.5 157.4,80.5 157.4,86.5 
	161,86.5 161,91 182.5,91 182.5,84.5 186.2,84.5 186.2,77 192,77 219.5,77 219.5,86 224.1,86 224.1,80.5 230.6,80.5 230.6,90 
	236,90 236,88 238.2,88 238.2,85 245.8,85 245.8,89.4 250.9,89.4 250.9,100 "/>
<g id="_x31_5lM6e.tif">
	
		<image style="overflow:visible;" width="800" height="600" id="Layer_0_1_" xlink:href="99F60237D384D9AE.png"  transform="matrix(0.1667 0 0 0.1667 73.6667 -102.6667)">
	</image>
</g>
<rect x="101" y="79" class="st2" width="28" height="21"/>
<rect x="100" y="77" class="st1" width="30" height="2"/>
<line class="st1" x1="104" y1="82" x2="104" y2="86"/>
<line class="st1" x1="126" y1="82" x2="126" y2="86"/>
<line class="st1" x1="123" y1="82" x2="123" y2="86"/>
<line class="st1" x1="107" y1="82" x2="107" y2="86"/>
<line class="st1" x1="110" y1="82" x2="110" y2="86"/>
<line class="st1" x1="120" y1="82" x2="120" y2="86"/>
<line class="st1" x1="116.5" y1="82" x2="116.5" y2="86"/>
<line class="st1" x1="113.5" y1="82" x2="113.5" y2="86"/>
<line class="st1" x1="126" y1="88" x2="126" y2="92"/>
<line class="st1" x1="123" y1="88" x2="123" y2="92"/>
<line class="st1" x1="107" y1="88" x2="107" y2="92"/>
<line class="st1" x1="110" y1="88" x2="110" y2="92"/>
<line class="st1" x1="120" y1="88" x2="120" y2="92"/>
<line class="st1" x1="116.5" y1="88" x2="116.5" y2="92"/>
<line class="st1" x1="113.5" y1="88" x2="113.5" y2="92"/>
<line class="st1" x1="104" y1="94" x2="104" y2="98"/>
<line class="st1" x1="126" y1="94" x2="126" y2="98"/>
<line class="st1" x1="123" y1="94" x2="123" y2="98"/>
<line class="st1" x1="107" y1="94" x2="107" y2="98"/>
<line class="st1" x1="110" y1="94" x2="110" y2="98"/>
<line class="st1" x1="120" y1="94" x2="120" y2="98"/>
<line class="st1" x1="116.5" y1="94" x2="116.5" y2="98"/>
<line class="st1" x1="113.5" y1="94" x2="113.5" y2="98"/>
<rect x="122.5" y="75" class="st1" width="3" height="2"/>
<rect x="116.3" y="76" class="st1" width="2" height="1"/>
<path class="st3" d="M137.2,63.3h-30.4c0-2.8,2.3-5.1,5.1-5.1c0.7,0,1.4,0.1,2,0.4c0.3-3.8,3.5-6.9,7.5-6.9c3.6,0,6.6,2.5,7.3,5.9
	c0.4-0.2,0.9-0.4,1.4-0.4c1.5,0,2.8,1.2,2.8,2.8c0,0.1,0,0.1,0,0.2c0.3-0.1,0.7-0.2,1.1-0.2C135.7,60,137.2,61.5,137.2,63.3z"/>
<polygon class="st4" points="153,42 154,100 134,100 135,42 144,30 "/>
<line class="st1" x1="144" y1="30" x2="144" y2="27"/>
<line class="st1" x1="137" y1="97" x2="151" y2="97"/>
<line class="st1" x1="137" y1="94" x2="151" y2="94"/>
<line class="st1" x1="137" y1="88" x2="151" y2="88"/>
<line class="st1" x1="137" y1="91" x2="151" y2="91"/>
<line class="st1" x1="137" y1="85" x2="151" y2="85"/>
<line class="st1" x1="137" y1="82" x2="151" y2="82"/>
<line class="st1" x1="137" y1="79" x2="151" y2="79"/>
<line class="st1" x1="137" y1="76" x2="151" y2="76"/>
<line class="st1" x1="137" y1="73" x2="151" y2="73"/>
<line class="st1" x1="137" y1="70" x2="151" y2="70"/>
<line class="st1" x1="137" y1="67" x2="151" y2="67"/>
<line class="st5" x1="137" y1="64" x2="151" y2="64"/>
<line class="st1" x1="138" y1="61" x2="150" y2="61"/>
<line class="st1" x1="138" y1="58" x2="150" y2="58"/>
<line class="st1" x1="138" y1="55" x2="150" y2="55"/>
<line class="st1" x1="138" y1="52" x2="150" y2="52"/>
<line class="st1" x1="138" y1="49" x2="150" y2="49"/>
<line class="st1" x1="138" y1="46" x2="150" y2="46"/>
<line class="st1" x1="138" y1="43" x2="150" y2="43"/>
<rect x="162" y="52" class="st1" width="20" height="48"/>
<rect x="174" y="80" class="st1" width="10" height="20"/>
<rect x="160" y="80" class="st1" width="10" height="20"/>
<rect x="175" y="63" class="st1" width="8" height="17"/>
<rect x="161" y="63" class="st1" width="8" height="17"/>
<path class="st6" d="M179,78"/>
<path class="st6" d="M179,65"/>
<line class="st1" x1="162" y1="83" x2="168" y2="83"/>
<line class="st1" x1="162" y1="86" x2="168" y2="86"/>
<line class="st1" x1="162" y1="89" x2="168" y2="89"/>
<line class="st1" x1="162" y1="92" x2="168" y2="92"/>
<line class="st1" x1="162" y1="95" x2="168" y2="95"/>
<line class="st1" x1="162" y1="98" x2="168" y2="98"/>
<line class="st1" x1="176" y1="83" x2="182" y2="83"/>
<line class="st1" x1="176" y1="86" x2="182" y2="86"/>
<line class="st1" x1="176" y1="89" x2="182" y2="89"/>
<line class="st1" x1="176" y1="92" x2="182" y2="92"/>
<line class="st1" x1="176" y1="95" x2="182" y2="95"/>
<line class="st1" x1="176" y1="98" x2="182" y2="98"/>
<line class="st1" x1="171.5" y1="83.5" x2="172.5" y2="83.5"/>
<line class="st1" x1="171.5" y1="86.5" x2="172.5" y2="86.5"/>
<line class="st1" x1="171.5" y1="89.5" x2="172.5" y2="89.5"/>
<line class="st1" x1="171.5" y1="92.5" x2="172.5" y2="92.5"/>
<line class="st1" x1="171.5" y1="95.5" x2="172.5" y2="95.5"/>
<line class="st1" x1="171.5" y1="98.5" x2="172.5" y2="98.5"/>
<line class="st1" x1="163" y1="77" x2="167" y2="77"/>
<line class="st1" x1="163" y1="74" x2="167" y2="74"/>
<line class="st1" x1="163" y1="71.5" x2="167" y2="71.5"/>
<line class="st1" x1="163" y1="66" x2="167" y2="66"/>
<line class="st1" x1="163" y1="69" x2="167" y2="69"/>
<line class="st1" x1="177" y1="77" x2="181" y2="77"/>
<line class="st1" x1="177" y1="74" x2="181" y2="74"/>
<line class="st1" x1="177" y1="71.5" x2="181" y2="71.5"/>
<line class="st1" x1="177" y1="66" x2="181" y2="66"/>
<line class="st1" x1="177" y1="69" x2="181" y2="69"/>
<line class="st1" x1="170.5" y1="77" x2="173.5" y2="77"/>
<line class="st1" x1="170.5" y1="74" x2="173.5" y2="74"/>
<line class="st1" x1="170.5" y1="71.5" x2="173.5" y2="71.5"/>
<line class="st1" x1="170.5" y1="66" x2="173.5" y2="66"/>
<line class="st1" x1="170.5" y1="69" x2="173.5" y2="69"/>
<line class="st1" x1="171.5" y1="80.5" x2="172.5" y2="80.5"/>
<line class="st1" x1="170.5" y1="63" x2="173.5" y2="63"/>
<line class="st1" x1="165" y1="59" x2="165" y2="61"/>
<line class="st1" x1="179" y1="59" x2="179" y2="61"/>
<line class="st1" x1="176" y1="59" x2="176" y2="61"/>
<line class="st1" x1="168" y1="59" x2="168" y2="61"/>
<line class="st1" x1="170.5" y1="59" x2="170.5" y2="61"/>
<line class="st1" x1="173.5" y1="59" x2="173.5" y2="61"/>
<line class="st1" x1="165" y1="54" x2="165" y2="58"/>
<line class="st1" x1="179" y1="54" x2="179" y2="58"/>
<line class="st1" x1="176" y1="54" x2="176" y2="58"/>
<line class="st1" x1="168" y1="54" x2="168" y2="58"/>
<line class="st1" x1="170.5" y1="54" x2="170.5" y2="58"/>
<line class="st1" x1="173.5" y1="54" x2="173.5" y2="58"/>
<rect x="166.5" y="47" class="st1" width="11" height="5"/>
<rect x="170.5" y="44" class="st1" width="3" height="3"/>
<rect x="172" y="36" class="st1" width="0" height="8"/>
<line class="st1" x1="168.5" y1="49" x2="168.5" y2="50"/>
<line class="st1" x1="175.5" y1="49" x2="175.5" y2="50"/>
<line class="st1" x1="173.5" y1="49" x2="173.5" y2="50"/>
<line class="st1" x1="170.5" y1="49" x2="170.5" y2="50"/>
<path class="st3" d="M124,44.6H74.9c0-2.1,1.7-3.8,3.8-3.8c0.3,0,0.6,0,0.9,0.1c-0.1-0.3-0.1-0.7-0.1-1c0-4,3.2-7.2,7.2-7.2
	c1.3,0,2.6,0.4,3.7,1c1-5.3,5.6-9.3,11.2-9.3c5,0,9.2,3.2,10.7,7.6c0.4-0.1,0.7-0.1,1.1-0.1c4.2,0,7.6,3.4,7.6,7.6
	c0,0.1,0,0.2,0,0.3C122.7,40.6,124,42.4,124,44.6z"/>
<circle id="XMLID_61_" class="st7" cx="193" cy="27.7" r="7.5"/>
<polygon class="st8" points="91.5,55 91.5,100 68.5,100 68.5,68 "/>
<line class="st8" x1="71.5" y1="70" x2="88.5" y2="70"/>
<line class="st8" x1="71.5" y1="73" x2="88.5" y2="73"/>
<line class="st8" x1="71.5" y1="76" x2="88.5" y2="76"/>
<line class="st8" x1="71.5" y1="79" x2="88.5" y2="79"/>
<line class="st8" x1="71.5" y1="82" x2="88.5" y2="82"/>
<line class="st8" x1="71.5" y1="85" x2="88.5" y2="85"/>
<line class="st8" x1="71.5" y1="88" x2="88.5" y2="88"/>
<line class="st8" x1="71.5" y1="91" x2="88.5" y2="91"/>
<line class="st8" x1="71.5" y1="94" x2="88.5" y2="94"/>
<line class="st8" x1="71.5" y1="97" x2="88.5" y2="97"/>
<rect x="191" y="71" class="st9" width="30" height="29"/>
<rect x="192.5" y="69" class="st9" width="27" height="2"/>
<line class="st1" x1="194" y1="74" x2="194" y2="78"/>
<line class="st1" x1="197" y1="74" x2="197" y2="78"/>
<line class="st1" x1="200" y1="74" x2="200" y2="78"/>
<line class="st1" x1="203" y1="74" x2="203" y2="78"/>
<line class="st1" x1="206" y1="74" x2="206" y2="78"/>
<line class="st1" x1="209" y1="74" x2="209" y2="78"/>
<line class="st1" x1="212" y1="74" x2="212" y2="78"/>
<line class="st1" x1="215" y1="74" x2="215" y2="78"/>
<line class="st1" x1="218" y1="74" x2="218" y2="78"/>
<line class="st1" x1="194" y1="80" x2="194" y2="84"/>
<line class="st1" x1="197" y1="80" x2="197" y2="84"/>
<line class="st1" x1="200" y1="80" x2="200" y2="84"/>
<line class="st1" x1="203" y1="80" x2="203" y2="84"/>
<line class="st1" x1="206" y1="80" x2="206" y2="84"/>
<line class="st1" x1="209" y1="80" x2="209" y2="84"/>
<line class="st1" x1="212" y1="80" x2="212" y2="84"/>
<line class="st1" x1="215" y1="80" x2="215" y2="84"/>
<line class="st1" x1="218" y1="80" x2="218" y2="84"/>
<line class="st1" x1="194" y1="86" x2="194" y2="90"/>
<line class="st1" x1="197" y1="86" x2="197" y2="90"/>
<line class="st1" x1="200" y1="86" x2="200" y2="90"/>
<line class="st1" x1="203" y1="86" x2="203" y2="90"/>
<line class="st1" x1="206" y1="86" x2="206" y2="90"/>
<line class="st1" x1="209" y1="86" x2="209" y2="90"/>
<line class="st1" x1="212" y1="86" x2="212" y2="90"/>
<line class="st1" x1="215" y1="86" x2="215" y2="90"/>
<line class="st1" x1="218" y1="86" x2="218" y2="90"/>
<line class="st1" x1="194" y1="92" x2="194" y2="96"/>
<line class="st1" x1="197" y1="92" x2="197" y2="96"/>
<line class="st1" x1="200" y1="92" x2="200" y2="96"/>
<line class="st1" x1="203" y1="92" x2="203" y2="96"/>
<line class="st1" x1="206" y1="92" x2="206" y2="96"/>
<line class="st1" x1="209" y1="92" x2="209" y2="96"/>
<line class="st1" x1="212" y1="92" x2="212" y2="96"/>
<line class="st1" x1="215" y1="92" x2="215" y2="96"/>
<line class="st1" x1="218" y1="92" x2="218" y2="96"/>
<line class="st1" x1="194" y1="98" x2="194" y2="100"/>
<line class="st1" x1="197" y1="98" x2="197" y2="100"/>
<line class="st1" x1="200" y1="98" x2="200" y2="100"/>
<line class="st1" x1="203" y1="98" x2="203" y2="100"/>
<line class="st1" x1="206" y1="98" x2="206" y2="100"/>
<line class="st1" x1="209" y1="98" x2="209" y2="100"/>
<line class="st1" x1="212" y1="98" x2="212" y2="100"/>
<line class="st1" x1="215" y1="98" x2="215" y2="100"/>
<line class="st1" x1="218" y1="98" x2="218" y2="100"/>
<path class="st10" d="M208.7,46.4c0,0,2.4-1.9,4.4,0c0,0,2.4-1.8,4.1-0.4"/>
<path class="st10" d="M217.2,51c0,0,2.7-2.8,4.9-0.6c0,0,1.4-2.2,4.5-0.9"/>
</svg>
