<?xml version="1.0" encoding="utf-8"?>
<!-- Generator: Adobe Illustrator 19.0.1, SVG Export Plug-In . SVG Version: 6.00 Build 0)  -->
<svg version="1.1" id="Layer_1" xmlns="http://www.w3.org/2000/svg" xmlns:xlink="http://www.w3.org/1999/xlink" x="0px" y="0px"
	 viewBox="0 0 300 100" style="enable-background:new 0 0 300 100;" xml:space="preserve">
<style type="text/css">
	.st0{fill:#D0EBF4;stroke:#A5A5A5;stroke-miterlimit:10;}
	.st1{fill:#E2E7E3;stroke:#A5A5A5;stroke-miterlimit:10;}
	.st2{fill:#D3D3D3;stroke:#A5A5A5;stroke-miterlimit:10;}
	.st3{fill:none;stroke:#A5A5A5;stroke-miterlimit:10;}
	.st4{fill:#F9B1AF;stroke:#A5A5A5;stroke-miterlimit:10;}
	.st5{fill:#9BE8B8;stroke:#A5A5A5;stroke-miterlimit:10;}
	.st6{fill:#D0EBF4;stroke:#A5A5A5;stroke-width:2;stroke-miterlimit:10;}
	.st7{fill:#EEDA69;stroke:#A5A5A5;stroke-miterlimit:10;}
</style>
<rect id="XMLID_42_" class="st0" width="300" height="77"/>
<rect id="XMLID_63_" x="129.5" y="54.5" class="st1" width="37" height="23"/>
<line id="XMLID_102_" class="st1" x1="141.5" y1="59" x2="141.5" y2="62"/>
<line id="XMLID_101_" class="st1" x1="144.5" y1="59" x2="144.5" y2="62"/>
<line id="XMLID_100_" class="st1" x1="147.5" y1="59" x2="147.5" y2="62"/>
<line id="XMLID_99_" class="st1" x1="150.5" y1="59" x2="150.5" y2="62"/>
<line id="XMLID_98_" class="st1" x1="153.5" y1="59" x2="153.5" y2="62"/>
<line id="XMLID_97_" class="st1" x1="156.5" y1="59" x2="156.5" y2="62"/>
<line id="XMLID_96_" class="st1" x1="159.5" y1="59" x2="159.5" y2="62"/>
<line id="XMLID_95_" class="st1" x1="162.5" y1="59" x2="162.5" y2="62"/>
<line id="XMLID_94_" class="st1" x1="141.5" y1="67" x2="141.5" y2="70"/>
<line id="XMLID_93_" class="st1" x1="144.5" y1="67" x2="144.5" y2="70"/>
<line id="XMLID_92_" class="st1" x1="147.5" y1="67" x2="147.5" y2="70"/>
<line id="XMLID_91_" class="st1" x1="150.5" y1="67" x2="150.5" y2="70"/>
<line id="XMLID_90_" class="st1" x1="153.5" y1="67" x2="153.5" y2="70"/>
<line id="XMLID_89_" class="st1" x1="156.5" y1="67" x2="156.5" y2="70"/>
<line id="XMLID_88_" class="st1" x1="159.5" y1="67" x2="159.5" y2="70"/>
<line id="XMLID_87_" class="st1" x1="162.5" y1="67" x2="162.5" y2="70"/>
<path id="XMLID_12_" class="st1" d="M181.5,27.5v38.2c0,0-4,3.5-12,6.1V58.3c0.1-0.3,0.2-0.5,0.3-0.8c5.9-13.1,6.7-30.1,6.7-30.1
	H181.5z"/>
<path id="XMLID_14_" class="st1" d="M164.5,66.2v7c-3.7,0.8-8.1,1.4-13,1.4v-2C156.9,72.6,161.2,70.1,164.5,66.2z"/>
<path id="XMLID_13_" class="st2" d="M181.5,65.8v11.8h-12v-5.6C177.5,69.3,181.5,65.8,181.5,65.8z"/>
<path id="XMLID_15_" class="st2" d="M164.5,73.2v4.3h-13v-2.9C156.4,74.6,160.8,74,164.5,73.2z"/>
<path id="XMLID_4_" class="st1" d="M193.5,27.5v38.2c0,0,4,3.5,12,6.1V58.3c-0.1-0.3-0.2-0.5-0.3-0.8c-5.9-13.1-6.7-30.1-6.7-30.1
	H193.5z"/>
<path id="XMLID_3_" class="st1" d="M210.5,66.2v7c3.7,0.8,8.1,1.4,13,1.4v-2C218.1,72.6,213.8,70.1,210.5,66.2z"/>
<path id="XMLID_2_" class="st2" d="M193.5,65.8v11.8h12v-5.6C197.5,69.3,193.5,65.8,193.5,65.8z"/>
<path id="XMLID_1_" class="st2" d="M210.5,73.2v4.3h13v-2.9C218.6,74.6,214.2,74,210.5,73.2z"/>
<rect id="XMLID_7_" x="184.5" y="27.5" class="st1" width="6" height="50"/>
<rect id="XMLID_8_" x="184.5" y="58.3" class="st2" width="6" height="7.4"/>
<line id="XMLID_104_" class="st1" x1="138.5" y1="67" x2="138.5" y2="70"/>
<line id="XMLID_21_" class="st3" x1="193" y1="69.5" x2="195" y2="69.5"/>
<line id="XMLID_22_" class="st3" x1="193" y1="71.5" x2="196" y2="71.5"/>
<rect id="XMLID_70_" x="60.5" y="54.5" class="st1" width="37" height="23"/>
<polygon id="XMLID_69_" class="st4" points="101.5,48.5 65.5,48.5 60,54.5 93.5,54.5 "/>
<line id="XMLID_23_" class="st3" x1="193" y1="73.5" x2="195" y2="73.5"/>
<line id="XMLID_24_" class="st3" x1="193" y1="75.5" x2="196" y2="75.5"/>
<rect id="XMLID_67_" x="93.5" y="56.8" class="st2" width="37" height="15.1"/>
<line id="XMLID_11_" class="st3" x1="203" y1="73.5" x2="205" y2="73.5"/>
<line id="XMLID_10_" class="st3" x1="203" y1="75.5" x2="206" y2="75.5"/>
<line id="XMLID_17_" class="st3" x1="211" y1="75.5" x2="214" y2="75.5"/>
<line id="XMLID_28_" class="st3" x1="182" y1="69.5" x2="180" y2="69.5"/>
<line id="XMLID_27_" class="st3" x1="182" y1="71.5" x2="179" y2="71.5"/>
<line id="XMLID_26_" class="st3" x1="182" y1="73.5" x2="180" y2="73.5"/>
<line id="XMLID_25_" class="st3" x1="182" y1="75.5" x2="179" y2="75.5"/>
<line id="XMLID_20_" class="st3" x1="172" y1="73.5" x2="170" y2="73.5"/>
<line id="XMLID_19_" class="st3" x1="172" y1="75.5" x2="169" y2="75.5"/>
<line id="XMLID_18_" class="st3" x1="164" y1="75.5" x2="161" y2="75.5"/>
<g id="XMLID_29_">
	<path id="XMLID_44_" class="st5" d="M154.3,64.8c0-1.8-1.3-3.2-3-3.5c0-0.2,0-0.4,0-0.5c0-2.5-2-4.5-4.5-4.5c-2.3,0-4.2,1.8-4.5,4
		c-1.2,0.2-2,1.2-2,2.5c0,0.3,0,0.5,0.1,0.8c-1.2,0.5-2.1,1.8-2.1,3.2c0,1.9,1.6,3.5,3.5,3.5c0.2,0,0.4,0,0.5,0c0.2,1.2,1.2,2,2.5,2
		c1,0,1.9-0.6,2.3-1.5c0,0,0.1,0,0.1,0c0.3,0,0.5-0.1,0.8-0.2c0.5,0.5,1.1,0.8,1.8,0.8c1.2,0,2.2-0.9,2.5-2.1c0.2,0,0.3,0.1,0.5,0.1
		c1.4,0,2.5-1.1,2.5-2.5C155.3,66,154.9,65.3,154.3,64.8z"/>
	<line id="XMLID_30_" class="st3" x1="147.5" y1="78" x2="147.5" y2="64"/>
	<line id="XMLID_31_" class="st3" x1="147.5" y1="68" x2="150" y2="65.5"/>
	<line id="XMLID_32_" class="st3" x1="147.5" y1="69.3" x2="144.9" y2="66.7"/>
</g>
<g id="XMLID_34_">
	<path id="XMLID_38_" class="st5" d="M222.3,66.8c0,1.4,1.1,2.5,2.5,2.5c0.2,0,0.4,0,0.5-0.1c0.2,1.2,1.2,2.1,2.5,2.1
		c0.7,0,1.3-0.3,1.8-0.8c0.2,0.2,0.5,0.2,0.8,0.2c0,0,0.1,0,0.1,0c0.4,0.9,1.3,1.5,2.3,1.5c1.2,0,2.2-0.9,2.5-2c0.2,0,0.4,0,0.5,0
		c1.9,0,3.5-1.6,3.5-3.5c0-1.4-0.9-2.7-2.1-3.2c0.1-0.2,0.1-0.5,0.1-0.8c0-1.2-0.9-2.2-2-2.5c-0.2-2.3-2.1-4-4.5-4
		c-2.5,0-4.5,2-4.5,4.5c0,0.2,0,0.4,0,0.5c-1.7,0.2-3,1.7-3,3.5C222.7,65.3,222.3,66,222.3,66.8z"/>
	<line id="XMLID_37_" class="st3" x1="230.5" y1="78" x2="230.5" y2="64"/>
	<line id="XMLID_36_" class="st3" x1="230.5" y1="69" x2="233.7" y2="65.8"/>
	<line id="XMLID_35_" class="st3" x1="230.5" y1="68.3" x2="228.4" y2="65.8"/>
</g>
<rect id="XMLID_33_" y="77" class="st5" width="300" height="23"/>
<polygon id="XMLID_62_" class="st4" points="126,48.5 162,48.5 167.5,54.5 134,54.5 "/>
<rect id="XMLID_45_" x="89.5" y="73" class="st1" width="45" height="4"/>
<polygon id="XMLID_52_" class="st1" points="134.5,51.2 112,40.5 89.5,51 89.5,55.5 134.5,55.5 "/>
<path id="XMLID_51_" class="st5" d="M134.5,52.2"/>
<path id="XMLID_49_" class="st5" d="M89.5,51.5"/>
<g id="XMLID_53_">
	<rect id="XMLID_46_" x="91.5" y="57.5" class="st1" width="4" height="14"/>
	<rect id="XMLID_59_" x="98.5" y="57.5" class="st1" width="4" height="14"/>
	<rect id="XMLID_58_" x="106.5" y="57.5" class="st1" width="4" height="14"/>
	<rect id="XMLID_48_" x="113.5" y="57.5" class="st1" width="4" height="14"/>
	<rect id="XMLID_47_" x="121.5" y="57.5" class="st1" width="4" height="14"/>
	<rect id="XMLID_5_" x="128.5" y="57.5" class="st1" width="4" height="14"/>
</g>
<line id="XMLID_65_" class="st6" x1="112" y1="41" x2="112" y2="40"/>
<polygon id="XMLID_66_" class="st2" points="112,43.1 131.5,52 131.5,53.5 92.5,53.5 92.5,52 "/>
<rect id="XMLID_64_" x="90.7" y="71.1" class="st1" width="42.7" height="1.8"/>
<rect id="XMLID_68_" x="90.7" y="55.5" class="st1" width="42.7" height="2.5"/>
<circle id="XMLID_61_" class="st7" cx="135" cy="25.7" r="7.5"/>
<line id="XMLID_103_" class="st1" x1="138.5" y1="59" x2="138.5" y2="62"/>
<line id="XMLID_72_" class="st1" x1="64.5" y1="59" x2="64.5" y2="62"/>
<line id="XMLID_71_" class="st1" x1="67.5" y1="59" x2="67.5" y2="62"/>
<line id="XMLID_73_" class="st1" x1="70.5" y1="59" x2="70.5" y2="62"/>
<line id="XMLID_74_" class="st1" x1="73.5" y1="59" x2="73.5" y2="62"/>
<line id="XMLID_75_" class="st1" x1="76.5" y1="59" x2="76.5" y2="62"/>
<line id="XMLID_76_" class="st1" x1="79.5" y1="59" x2="79.5" y2="62"/>
<line id="XMLID_77_" class="st1" x1="82.5" y1="59" x2="82.5" y2="62"/>
<line id="XMLID_78_" class="st1" x1="85.5" y1="59" x2="85.5" y2="62"/>
<line id="XMLID_86_" class="st1" x1="64.5" y1="67" x2="64.5" y2="70"/>
<line id="XMLID_85_" class="st1" x1="67.5" y1="67" x2="67.5" y2="70"/>
<line id="XMLID_84_" class="st1" x1="70.5" y1="67" x2="70.5" y2="70"/>
<line id="XMLID_83_" class="st1" x1="73.5" y1="67" x2="73.5" y2="70"/>
<line id="XMLID_82_" class="st1" x1="76.5" y1="67" x2="76.5" y2="70"/>
<line id="XMLID_81_" class="st1" x1="79.5" y1="67" x2="79.5" y2="70"/>
<line id="XMLID_80_" class="st1" x1="82.5" y1="67" x2="82.5" y2="70"/>
<line id="XMLID_79_" class="st1" x1="85.5" y1="67" x2="85.5" y2="70"/>
<path id="XMLID_142_" class="st5" d="M85.7,68c0,1.9-1.6,3.5-3.5,3.5c-0.2,0-0.4,0-0.5,0c-0.2,1.2-1.2,2-2.5,2c-1,0-1.9-0.6-2.3-1.5
	c-0.5,0.3-1.1,0.5-1.7,0.5c-1.5,0-2.7-0.9-3.2-2.1c-0.2,0.1-0.5,0.1-0.8,0.1c-1.4,0-2.5-1.1-2.5-2.5c0-0.9,0.5-1.7,1.1-2.1
	c-0.1-0.3-0.1-0.6-0.1-0.9c0-1.8,1.3-3.2,3-3.5c0-0.2,0-0.4,0-0.5c0-2.5,2-4.5,4.5-4.5c2.3,0,4.2,1.8,4.5,4c1.3,0.2,2.2,1.5,2,2.8
	c-0.1,0.5-0.3,0.9-0.6,1.2C84.6,65,85.7,66.4,85.7,68z"/>
<polyline id="XMLID_6_" class="st5" points="77.5,77 77.5,70 77.5,66 "/>
<line id="XMLID_9_" class="st5" x1="80" y1="68" x2="77.7" y2="70.3"/>
<line id="XMLID_16_" class="st5" x1="77.2" y1="69.1" x2="75.6" y2="67.5"/>
</svg>
